<svg width="50" height="50" viewBox="0 0 50 50" fill="none" xmlns="http://www.w3.org/2000/svg">
<path d="M25 50C21.5833 50 18.3542 49.3438 15.3125 48.0312C12.2708 46.7188 9.61458 44.9271 7.34375 42.6562C5.07292 40.3854 3.28125 37.7292 1.96875 34.6875C0.65625 31.6458 0 28.4167 0 25C0 21.5417 0.65625 18.3021 1.96875 15.2812C3.28125 12.2604 5.07292 9.61458 7.34375 7.34375C9.61458 5.07292 12.2708 3.28125 15.3125 1.96875C18.3542 0.65625 21.5833 0 25 0C28.4583 0 31.6979 0.65625 34.7188 1.96875C37.7396 3.28125 40.3854 5.07292 42.6562 7.34375C44.9271 9.61458 46.7188 12.2604 48.0312 15.2812C49.3438 18.3021 50 21.5417 50 25V28.625C50 31.0833 49.1563 33.1771 47.4688 34.9062C45.7813 36.6354 43.7083 37.5 41.25 37.5C39.75 37.5 38.3542 37.1667 37.0625 36.5C35.7708 35.8333 34.7083 34.9583 33.875 33.875C32.75 35 31.4271 35.8854 29.9063 36.5312C28.3854 37.1771 26.75 37.5 25 37.5C21.5417 37.5 18.5938 36.2812 16.1562 33.8438C13.7188 31.4062 12.5 28.4583 12.5 25C12.5 21.5417 13.7188 18.5938 16.1562 16.1562C18.5938 13.7188 21.5417 12.5 25 12.5C28.4583 12.5 31.4062 13.7188 33.8438 16.1562C36.2812 18.5938 37.5 21.5417 37.5 25V28.625C37.5 29.8333 37.875 30.7813 38.625 31.4688C39.375 32.1562 40.25 32.5 41.25 32.5C42.25 32.5 43.125 32.1562 43.875 31.4688C44.625 30.7813 45 29.8333 45 28.625V25C45 19.5417 43.0312 14.8438 39.0938 10.9062C35.1562 6.96875 30.4583 5 25 5C19.5417 5 14.8438 6.96875 10.9062 10.9062C6.96875 14.8438 5 19.5417 5 25C5 30.4583 6.96875 35.1562 10.9062 39.0938C14.8438 43.0312 19.5417 45 25 45H37.5V50H25ZM25 32.5C27.0833 32.5 28.8542 31.7708 30.3125 30.3125C31.7708 28.8542 32.5 27.0833 32.5 25C32.5 22.9167 31.7708 21.1458 30.3125 19.6875C28.8542 18.2292 27.0833 17.5 25 17.5C22.9167 17.5 21.1458 18.2292 19.6875 19.6875C18.2292 21.1458 17.5 22.9167 17.5 25C17.5 27.0833 18.2292 28.8542 19.6875 30.3125C21.1458 31.7708 22.9167 32.5 25 32.5Z" fill="#1C1B1F"/>
</svg>
