<svg width="49" height="50" viewBox="0 0 49 50" fill="none" xmlns="http://www.w3.org/2000/svg">
<path d="M23.6875 33.8125C26.6042 33.8125 29.0833 32.875 31.125 31C33.1667 29.125 34.1875 26.8542 34.1875 24.1875C34.1875 21.8125 33.4271 19.8021 31.9062 18.1562C30.3854 16.5104 28.5417 15.6875 26.375 15.6875C24.4167 15.6875 22.7604 16.3125 21.4062 17.5625C20.0521 18.8125 19.375 20.3542 19.375 22.1875C19.375 22.9792 19.5312 23.75 19.8438 24.5C20.1562 25.25 20.6042 25.9375 21.1875 26.5625L24.75 23C24.625 22.9167 24.5313 22.8125 24.4688 22.6875C24.4063 22.5625 24.375 22.4167 24.375 22.25C24.375 21.7917 24.5625 21.4271 24.9375 21.1563C25.3125 20.8854 25.7917 20.75 26.375 20.75C27.2083 20.75 27.8958 21.0938 28.4375 21.7813C28.9792 22.4688 29.25 23.2917 29.25 24.25C29.25 25.5417 28.7188 26.6354 27.6562 27.5312C26.5938 28.4271 25.2917 28.875 23.75 28.875C21.7917 28.875 20.1354 28.0833 18.7812 26.5C17.4271 24.9167 16.75 22.9792 16.75 20.6875C16.75 19.4792 16.9792 18.3229 17.4375 17.2188C17.8958 16.1146 18.5417 15.1458 19.375 14.3125L15.8125 10.75C14.4792 12.0417 13.4583 13.5417 12.75 15.25C12.0417 16.9583 11.6875 18.75 11.6875 20.625C11.6875 24.2917 12.8542 27.4062 15.1875 29.9688C17.5208 32.5312 20.3542 33.8125 23.6875 33.8125ZM8 50V39.25C5.625 37.0833 3.78125 34.5521 2.46875 31.6562C1.15625 28.7604 0.5 25.7083 0.5 22.5C0.5 16.25 2.6875 10.9375 7.0625 6.5625C11.4375 2.1875 16.75 0 23 0C28.2083 0 32.8229 1.53125 36.8438 4.59375C40.8646 7.65625 43.4792 11.6458 44.6875 16.5625L47.9375 29.375C48.1458 30.1667 48 30.8854 47.5 31.5312C47 32.1771 46.3333 32.5 45.5 32.5H40.5V40C40.5 41.375 40.0104 42.5521 39.0312 43.5312C38.0521 44.5104 36.875 45 35.5 45H30.5V50H25.5V40H35.5V27.5H42.25L39.875 17.8125C38.9167 14.0208 36.875 10.9375 33.75 8.5625C30.625 6.1875 27.0417 5 23 5C18.1667 5 14.0417 6.6875 10.625 10.0625C7.20833 13.4375 5.5 17.5417 5.5 22.375C5.5 24.875 6.01042 27.25 7.03125 29.5C8.05208 31.75 9.5 33.75 11.375 35.5L13 37V50H8Z" fill="#1C1B1F"/>
</svg>
