<svg width="46" height="40" viewBox="0 0 46 40" fill="none" xmlns="http://www.w3.org/2000/svg">
<path d="M15.5 37.5V32.5H45.5V37.5H15.5ZM15.5 22.5V17.5H45.5V22.5H15.5ZM15.5 7.5V2.5H45.5V7.5H15.5ZM5.5 40C4.125 40 2.94792 39.5104 1.96875 38.5312C0.989583 37.5521 0.5 36.375 0.5 35C0.5 33.625 0.989583 32.4479 1.96875 31.4688C2.94792 30.4896 4.125 30 5.5 30C6.875 30 8.05208 30.4896 9.03125 31.4688C10.0104 32.4479 10.5 33.625 10.5 35C10.5 36.375 10.0104 37.5521 9.03125 38.5312C8.05208 39.5104 6.875 40 5.5 40ZM5.5 25C4.125 25 2.94792 24.5104 1.96875 23.5312C0.989583 22.5521 0.5 21.375 0.5 20C0.5 18.625 0.989583 17.4479 1.96875 16.4688C2.94792 15.4896 4.125 15 5.5 15C6.875 15 8.05208 15.4896 9.03125 16.4688C10.0104 17.4479 10.5 18.625 10.5 20C10.5 21.375 10.0104 22.5521 9.03125 23.5312C8.05208 24.5104 6.875 25 5.5 25ZM5.5 10C4.125 10 2.94792 9.51042 1.96875 8.53125C0.989583 7.55208 0.5 6.375 0.5 5C0.5 3.625 0.989583 2.44792 1.96875 1.46875C2.94792 0.489583 4.125 0 5.5 0C6.875 0 8.05208 0.489583 9.03125 1.46875C10.0104 2.44792 10.5 3.625 10.5 5C10.5 6.375 10.0104 7.55208 9.03125 8.53125C8.05208 9.51042 6.875 10 5.5 10Z" fill="#1C1B1F"/>
</svg>
